<?xml version="1.0" encoding="UTF-8" standalone="no"?>
<!DOCTYPE svg PUBLIC "-//W3C//DTD SVG 1.1//EN" "http://www.w3.org/Graphics/SVG/1.1/DTD/svg11.dtd">
<svg version="1.1" xmlns="http://www.w3.org/2000/svg" xmlns:xlink="http://www.w3.org/1999/xlink" preserveAspectRatio="xMidYMid meet" viewBox="0 0 640 640" width="128" height="128"><defs><path d="M320 0C143.27 0 0 143.27 0 320C0 496.73 143.27 640 320 640C496.73 640 640 496.73 640 320C640 143.27 496.73 0 320 0Z" id="a3JcckpNVg"></path><path d="M508.97 144.81L118.26 502.76C195.61 580.11 238.58 623.08 247.17 631.67C270.57 637.12 294.95 640 320 640C496.73 640 640 496.73 640 320C640 303.79 638.78 287.86 636.46 272.3C619.46 255.3 576.96 212.8 508.97 144.81Z" id="aqGXemqFF"></path><path d="M488.13 123.97C478.9 114.74 464.13 114.12 454.16 122.55C437.31 136.81 353.07 208.09 201.45 336.39L180.65 440.37L161.11 459.91L118.26 502.76L180.65 523.56L202.71 501.5L222.24 481.96L326.22 461.17C454.52 309.54 525.8 225.3 540.06 208.45C548.49 198.48 547.88 183.72 538.65 174.49C528.54 164.38 493.18 129.02 488.13 123.97Z" id="acVLGrDT3"></path><path d="M513.55 149.39L147.76 512.59L180.65 523.55L202.71 501.5L222.24 481.96L326.22 461.16C454.52 309.53 525.8 225.3 540.06 208.45C548.49 198.48 547.88 183.72 538.65 174.49C535.3 171.14 526.93 162.77 513.55 149.39Z" id="a2Bx1L5mS"></path><path d="M201.44 336.39C353.07 208.09 437.31 136.81 454.16 122.56C464.13 114.12 478.9 114.74 488.13 123.97C493.18 129.02 533.59 169.44 538.65 174.49C547.88 183.72 548.49 198.49 540.06 208.45C525.8 225.3 454.52 309.54 326.22 461.17L201.44 336.39Z" id="b891R8U8l3"></path><path d="M513.54 149.39L263.11 398.05L326.22 461.17C454.52 309.54 525.8 225.3 540.06 208.45C548.49 198.48 547.88 183.72 538.64 174.49C535.3 171.14 526.93 162.77 513.54 149.39Z" id="a57e0T06q"></path><path d="M180.65 523.55L201.45 502.76L159.85 461.17L118.26 502.76L180.65 523.55Z" id="d79GBdNRH8"></path><path d="M180.65 523.55L201.45 502.76L179.63 480.94L147.76 512.59L180.65 523.55Z" id="a7EdwOnlx"></path></defs><g><g><g><use xlink:href="#a3JcckpNVg" opacity="1" fill="#206ca7" fill-opacity="1"></use><g><use xlink:href="#a3JcckpNVg" opacity="1" fill-opacity="0" stroke="#000000" stroke-width="1" stroke-opacity="0"></use></g></g><g><use xlink:href="#aqGXemqFF" opacity="1" fill="#113d5f" fill-opacity="1"></use><g><use xlink:href="#aqGXemqFF" opacity="1" fill-opacity="0" stroke="#000000" stroke-width="1" stroke-opacity="0"></use></g></g><g><use xlink:href="#acVLGrDT3" opacity="1" fill="#ffedb5" fill-opacity="1"></use><g><use xlink:href="#acVLGrDT3" opacity="1" fill-opacity="0" stroke="#000000" stroke-width="1" stroke-opacity="0"></use></g></g><g><use xlink:href="#a2Bx1L5mS" opacity="1" fill="#fee187" fill-opacity="1"></use><g><use xlink:href="#a2Bx1L5mS" opacity="1" fill-opacity="0" stroke="#000000" stroke-width="1" stroke-opacity="0"></use></g></g><g><use xlink:href="#b891R8U8l3" opacity="1" fill="#ffe21b" fill-opacity="1"></use><g><use xlink:href="#b891R8U8l3" opacity="1" fill-opacity="0" stroke="#000000" stroke-width="1" stroke-opacity="0"></use></g></g><g><use xlink:href="#a57e0T06q" opacity="1" fill="#e0c407" fill-opacity="1"></use><g><use xlink:href="#a57e0T06q" opacity="1" fill-opacity="0" stroke="#000000" stroke-width="1" stroke-opacity="0"></use></g></g><g><use xlink:href="#d79GBdNRH8" opacity="1" fill="#ffe21b" fill-opacity="1"></use><g><use xlink:href="#d79GBdNRH8" opacity="1" fill-opacity="0" stroke="#000000" stroke-width="1" stroke-opacity="0"></use></g></g><g><use xlink:href="#a7EdwOnlx" opacity="1" fill="#e0c407" fill-opacity="1"></use><g><use xlink:href="#a7EdwOnlx" opacity="1" fill-opacity="0" stroke="#000000" stroke-width="1" stroke-opacity="0"></use></g></g></g></g></svg>